<?xml version="1.0" encoding="iso-8859-1"?>
<!-- Generator: Adobe Illustrator 19.0.0, SVG Export Plug-In . SVG Version: 6.00 Build 0)  -->
<svg version="1.1" id="Layer_1" xmlns="http://www.w3.org/2000/svg" xmlns:xlink="http://www.w3.org/1999/xlink" x="0px" y="0px"
	 viewBox="0 0 511.999 511.999" style="enable-background:new 0 0 511.999 511.999;" xml:space="preserve">
<g>
	<g>
		<path d="M467.481,111.696c-28.431-41.588-68.012-73.634-114.465-92.67c-5.112-2.096-10.959,0.351-13.054,5.465
			c-2.096,5.114,0.351,10.959,5.465,13.055c42.823,17.549,79.314,47.096,105.532,85.445c26.84,39.261,41.026,85.256,41.026,133.008
			c0,130.123-105.863,235.985-235.985,235.985S20.015,386.123,20.015,255.999S125.877,20.015,255.999,20.015
			c5.528,0,10.007-4.481,10.007-10.007S261.527,0,255.999,0C114.84,0,0,114.841,0,255.999s114.84,255.999,255.999,255.999
			s255.999-114.84,255.999-255.999C512,204.199,496.606,154.3,467.481,111.696z"/>
	</g>
</g>
<g>
	<g>
		<path d="M439.394,186.605h-81.821c-5.528,0-10.007,4.481-10.007,10.007s4.479,10.007,10.007,10.007h81.821
			c5.528,0,10.007-4.481,10.007-10.007S444.922,186.605,439.394,186.605z"/>
	</g>
</g>
<g>
	<g>
		<path d="M398.484,335.159H217.886c-5.528,0-10.007,4.479-10.007,10.007c0,5.527,4.479,10.007,10.007,10.007h180.597
			c5.528,0,10.007-4.481,10.007-10.007C408.491,339.639,404.012,335.159,398.484,335.159z"/>
	</g>
</g>
<g>
	<g>
		<path d="M251.982,186.605h-81.821c-5.528,0-10.007,4.481-10.007,10.007s4.479,10.007,10.007,10.007h81.821
			c5.527,0,10.007-4.481,10.007-10.007S257.51,186.605,251.982,186.605z"/>
	</g>
</g>
<g>
	<g>
		<circle cx="314.03" cy="17.74" r="10.007"/>
	</g>
</g>
<g>
</g>
<g>
</g>
<g>
</g>
<g>
</g>
<g>
</g>
<g>
</g>
<g>
</g>
<g>
</g>
<g>
</g>
<g>
</g>
<g>
</g>
<g>
</g>
<g>
</g>
<g>
</g>
<g>
</g>
</svg>
