<svg xmlns="http://www.w3.org/2000/svg" width="512" height="512" fill="none" viewBox="0 0 512 512">
  <path fill="#000" d="M355.562 20.084c-5.088-2.152-10.961.232-13.112 5.323-2.151 5.09.232 10.963 5.323 13.112 87.606 37.015 144.214 122.382 144.214 217.48 0 130.124-105.862 235.985-235.984 235.985S20.015 386.122 20.015 255.999c0-130.123 105.863-235.984 235.986-235.984a10.005 10.005 0 0010.007-10.007C266.008 4.479 261.529 0 256.001 0c-141.16 0-256 114.84-256 255.999 0 141.16 114.84 256.001 256 256.001C397.159 512 512 397.16 512 256c.001-103.161-61.406-195.764-156.438-235.916z"/>
  <path fill="#000" d="M367.914 397.222H248.456a10.005 10.005 0 00-10.007 10.007 10.005 10.005 0 0010.007 10.007h119.457a10.005 10.005 0 0010.007-10.007c0-5.528-4.478-10.007-10.006-10.007zM281.749 283.778c-3.389-4.369-9.674-5.16-14.04-1.773-9.579 7.429-27.879 12.232-46.621 12.232-19.203 0-37.257-4.714-45.991-12.006a10.004 10.004 0 00-14.094 1.268c-3.543 4.243-2.974 10.553 1.268 14.094 12.492 10.43 34.48 16.658 58.817 16.658 23.609 0 45.624-6.143 58.889-16.432 4.366-3.389 5.16-9.675 1.772-14.041zM455.335 283.778c-3.388-4.369-9.675-5.16-14.04-1.773-9.579 7.429-27.879 12.232-46.621 12.232-19.202 0-37.254-4.713-45.99-12.006-4.243-3.544-10.552-2.974-14.094 1.268-3.544 4.242-2.977 10.553 1.266 14.094 12.492 10.43 34.48 16.658 58.816 16.658 23.609 0 45.624-6.143 58.889-16.432 4.368-3.389 5.162-9.675 1.774-14.041zM230.255 216.296c-4.889-2.582-10.941-.705-13.519 4.184-2.578 4.885-10.209 12.097-21.452 17.194-11.486 5.21-21.594 6.17-26.521 4.804-5.323-1.468-10.84 1.649-12.314 6.976-1.473 5.325 1.648 10.84 6.976 12.314 3.085.853 6.547 1.272 10.266 1.272 9.024 0 19.554-2.463 29.859-7.136 14.098-6.393 25.647-16.145 30.889-26.089 2.58-4.887.705-10.941-4.184-13.519zM456.729 249.453a10.002 10.002 0 00-12.314-6.973c-4.921 1.357-15.031.406-26.521-4.805-11.24-5.096-18.872-12.309-21.449-17.194-2.578-4.889-8.63-6.765-13.519-4.184-4.889 2.578-6.762 8.632-4.184 13.519 5.242 9.945 16.79 19.696 30.888 26.088 10.308 4.673 20.837 7.136 29.861 7.136 3.717 0 7.181-.418 10.266-1.273 5.325-1.474 8.447-6.988 6.972-12.314zM319.102 28.847c5.527 0 10.007-4.48 10.007-10.007 0-5.527-4.48-10.007-10.007-10.007-5.527 0-10.007 4.48-10.007 10.007 0 5.527 4.48 10.007 10.007 10.007z"/>
</svg>
